<svg width="1440" height="544" viewBox="0 0 1440 544" fill="none" xmlns="http://www.w3.org/2000/svg">
<g filter="url(#filter0_f_212_16580)">
<path opacity="0.15" d="M1291.15 246.732C1321.58 280.415 1346.26 338.974 1300.78 380.316C1296.09 384.578 1252.08 423.249 1185.9 418.447C1105.29 412.598 1088.76 349.292 999.797 332.858C903.456 315.06 846.912 375.277 799.864 356.779C744.23 334.905 737.4 216.935 838.098 166.373C959.406 105.462 1209.31 156.161 1291.15 246.732Z" fill="#EBC136"/>
<path opacity="0.15" d="M536.771 391.324C567.833 372.254 601.681 333.833 580.66 294.97C578.493 290.963 557.788 254.339 509.205 245.519C450.031 234.775 420.688 278.205 352.618 273.681C278.901 268.781 255.215 213.986 216.497 218.799C170.716 224.491 133.153 309.895 191.04 365.834C260.774 433.223 453.249 442.602 536.771 391.324Z" fill="#EBC136"/>
<path opacity="0.15" d="M721.575 321.89C706.187 300.799 690.464 260.221 703.947 222.859C705.337 219.007 718.519 183.857 744.877 178.297C776.983 171.526 790.013 216.799 826.481 216.823C865.973 216.849 881.817 163.774 902.122 171.155C926.131 179.883 941.044 267.57 906.944 319.508C865.865 382.075 762.953 378.602 721.575 321.89Z" fill="#EBC136"/>
<path opacity="0.15" d="M709.467 274.802C726.285 264.124 744.622 242.633 733.277 220.936C732.107 218.699 720.931 198.254 694.654 193.363C662.649 187.407 646.745 211.693 609.923 209.218C570.047 206.538 557.27 175.943 536.322 178.661C511.55 181.876 491.171 229.62 522.448 260.828C560.128 298.423 664.247 303.514 709.467 274.802Z" fill="#EBC136"/>
<path opacity="0.15" d="M1273.62 253.588C1291.76 237.269 1311.7 204.717 1299.95 172.415C1298.74 169.084 1287.14 138.653 1259.17 131.818C1225.09 123.492 1207.7 160.187 1168.42 157.169C1125.89 153.901 1112.75 108.289 1090.34 112.757C1063.83 118.041 1041.28 189.974 1074.15 236.157C1113.76 291.792 1224.86 297.467 1273.62 253.588Z" fill="#8047F8"/>
<path opacity="0.15" d="M1281.47 333.326C1295.57 344.278 1311.01 366.199 1301.7 388.096C1300.74 390.353 1291.56 410.984 1269.68 415.734C1243.02 421.52 1229.59 396.786 1198.9 399.006C1165.65 401.411 1155.21 432.314 1137.72 429.395C1117.03 425.944 1099.71 377.405 1125.58 346.025C1156.74 308.223 1243.55 303.877 1281.47 333.326Z" fill="#8047F8"/>
<path opacity="0.15" d="M261.669 162.038C274.238 183.763 286.664 225.202 274.427 262.638C273.165 266.498 261.232 301.705 238.787 306.649C211.449 312.671 201.407 266.552 170.524 265.589C137.079 264.546 122.497 317.812 105.464 309.825C85.3223 300.381 74.6149 211.322 104.632 159.677C140.792 97.462 227.871 103.623 261.669 162.038Z" fill="#EBC136"/>
<path opacity="0.15" d="M886.476 356.669C860.59 337.449 835.431 298.902 861.895 260.251C864.624 256.266 890.404 219.846 937.569 211.342C995.017 200.985 1015.08 244.502 1079.81 240.405C1149.91 235.968 1181.63 181.435 1217.17 186.475C1259.2 192.435 1279.73 277.888 1215.68 333.354C1138.52 400.172 956.081 408.35 886.476 356.669Z" fill="#EBC136"/>
<path opacity="0.15" d="M816.81 379.342C838.453 360.316 861.138 323.708 843.856 289.99C842.074 286.514 825.136 254.792 789.319 249.766C745.693 243.644 726.543 284.491 676.757 284.499C622.842 284.508 602.808 236.611 574.867 243.264C541.828 251.131 518.83 330.248 563.82 377.124C618.018 433.596 758.617 430.499 816.81 379.342Z" fill="#8047F8"/>
<path opacity="0.15" d="M860.472 162.93C901.019 173.592 944.079 193.391 913.336 210.184C910.167 211.915 879.993 227.688 814.11 228.935C733.863 230.455 697.181 208.596 605.369 206.711C505.943 204.668 470.601 228.694 418.852 224.196C357.66 218.877 312.602 177.072 394 154.517C492.058 127.346 751.444 134.262 860.472 162.93Z" fill="#8047F8"/>
<path opacity="0.15" d="M355.075 368.017C374.161 345.865 394.286 303.532 379.39 265.129C377.854 261.169 363.246 225.05 331.916 219.836C293.756 213.486 276.697 260.625 233.099 261.4C185.885 262.24 168.68 207.618 144.165 215.677C115.176 225.207 94.478 316.296 133.544 369.364C180.607 433.295 303.752 427.582 355.075 368.017Z" fill="#8047F8"/>
</g>
<defs>
<filter id="filter0_f_212_16580" x="-160" y="-160" width="1760" height="864" filterUnits="userSpaceOnUse" color-interpolation-filters="sRGB">
<feFlood flood-opacity="0" result="BackgroundImageFix"/>
<feBlend mode="normal" in="SourceGraphic" in2="BackgroundImageFix" result="shape"/>
<feGaussianBlur stdDeviation="80" result="effect1_foregroundBlur_212_16580"/>
</filter>
</defs>
</svg>
